<svg width="24" height="12" viewBox="0 0 24 12" fill="none" xmlns="http://www.w3.org/2000/svg">
<path d="M0.495916 10V1.27273H5.96751V2.40625H1.81268V5.06534H5.682V6.1946H1.81268V8.86648H6.01864V10H0.495916ZM17.0034 8.90057L16.8841 11.875H15.6355V10H14.8216V8.90057H17.0034ZM7.62411 3.45455H8.87269V8.89631H11.1355V3.45455H12.3841V8.89631H14.6468V3.45455H15.8954V10H7.62411V3.45455ZM21.0975 10.1321C20.4526 10.1321 19.8972 9.99432 19.4313 9.71875C18.9682 9.44034 18.6103 9.04972 18.3574 8.54688C18.1074 8.04119 17.9824 7.44886 17.9824 6.76989C17.9824 6.09943 18.1074 5.50852 18.3574 4.99716C18.6103 4.4858 18.9625 4.08665 19.4142 3.79972C19.8688 3.51278 20.4 3.36932 21.008 3.36932C21.3773 3.36932 21.7353 3.4304 22.0819 3.55256C22.4284 3.67472 22.7395 3.86648 23.0151 4.12784C23.2907 4.3892 23.508 4.72869 23.6671 5.14631C23.8262 5.56108 23.9057 6.06534 23.9057 6.65909V7.1108H18.7026V6.15625H22.6571C22.6571 5.82102 22.589 5.52415 22.4526 5.26562C22.3162 5.00426 22.1245 4.7983 21.8773 4.64773C21.633 4.49716 21.3461 4.42188 21.0165 4.42188C20.6586 4.42188 20.3461 4.50994 20.079 4.68608C19.8148 4.85937 19.6103 5.08665 19.4654 5.3679C19.3233 5.64631 19.2523 5.94886 19.2523 6.27557V7.02131C19.2523 7.45881 19.329 7.83097 19.4824 8.13778C19.6387 8.4446 19.856 8.67898 20.1344 8.84091C20.4128 9 20.7381 9.07955 21.1103 9.07955C21.3517 9.07955 21.5719 9.04545 21.7708 8.97727C21.9696 8.90625 22.1415 8.80114 22.2864 8.66193C22.4313 8.52273 22.5421 8.35085 22.6188 8.14631L23.8248 8.36364C23.7282 8.71875 23.5549 9.02983 23.3049 9.29688C23.0577 9.56108 22.7466 9.76705 22.3716 9.91477C21.9995 10.0597 21.5748 10.1321 21.0975 10.1321ZM19.7083 2.42756C19.5066 2.42756 19.3304 2.35369 19.1799 2.20597C19.0293 2.0554 18.954 1.8821 18.954 1.68608C18.954 1.47301 19.0293 1.29545 19.1799 1.15341C19.3304 1.01136 19.5066 0.940341 19.7083 0.940341C19.9213 0.940341 20.0989 1.01136 20.2409 1.15341C20.3858 1.29545 20.4583 1.47301 20.4583 1.68608C20.4583 1.8821 20.3858 2.0554 20.2409 2.20597C20.0989 2.35369 19.9213 2.42756 19.7083 2.42756ZM22.214 2.42756C22.0123 2.42756 21.8361 2.35369 21.6855 2.20597C21.535 2.0554 21.4597 1.8821 21.4597 1.68608C21.4597 1.47301 21.535 1.29545 21.6855 1.15341C21.8361 1.01136 22.0123 0.940341 22.214 0.940341C22.427 0.940341 22.6046 1.01136 22.7466 1.15341C22.8915 1.29545 22.964 1.47301 22.964 1.68608C22.964 1.8821 22.8915 2.0554 22.7466 2.20597C22.6046 2.35369 22.427 2.42756 22.214 2.42756Z" fill="white"/>
</svg>
